<?xml version="1.0" encoding="UTF-8" standalone="no"?>
<svg width="1278px" height="851px" viewBox="0 0 1278 851" version="1.1" xmlns="http://www.w3.org/2000/svg" xmlns:xlink="http://www.w3.org/1999/xlink">
    <!-- Generator: Sketch 3.8.1 (29687) - http://www.bohemiancoding.com/sketch -->
    <title>Group</title>
    <desc>Created with Sketch.</desc>
    <defs>
        <linearGradient x1="50%" y1="0%" x2="50%" y2="100%" id="linearGradient-1">
            <stop stop-color="#FBDA61" stop-opacity="0.52063519" offset="0%"></stop>
            <stop stop-color="#F76B1C" stop-opacity="0.534675045" offset="100%"></stop>
        </linearGradient>
    </defs>
    <g id="Page-1" stroke="none" stroke-width="1" fill="none" fill-rule="evenodd">
        <g id="Desktop-HD" transform="translate(-92.000000, -94.000000)" fill="url(#linearGradient-1)">
            <g id="Group" transform="translate(89.000000, 93.000000)">
                <path d="M1024.62752,42.0495619 C1025.2437,41.4442928 1026.01391,40.9559534 1026.93818,40.5845291 C1029.4029,39.6683934 1032.02163,39.8301575 1034.79443,41.0627603 L1191.45729,108.861468 C1193.92201,109.789384 1195.07733,111.03105 1194.92329,112.59018 C1194.76924,114.149782 1193.61392,115.391132 1191.45729,116.316822 L1034.79443,184.340325 C1032.94589,185.302632 1031.09738,185.628806 1029.24884,185.315865 C1027.40031,185.001594 1025.85988,184.346598 1024.62752,183.350193 C1023.39516,182.35157 1023.01006,181.141332 1023.47219,179.721914 C1023.93433,178.303577 1025.08964,177.116588 1026.93818,176.162095 L1173.89627,112.72433 L1026.93818,49.5589306 C1022.62493,47.3988788 1021.85471,44.8887982 1024.62752,42.0495619 Z" id="&gt;-" transform="translate(1108.968439, 112.715416) rotate(50.000000) translate(-1108.968439, -112.715416) "></path>
                <path d="M420.19805,638.623431 C420.81423,638.018162 421.584443,637.529823 422.508712,637.158398 C424.97343,636.242263 427.592154,636.404027 430.364962,637.636629 L587.027823,705.435337 C589.492541,706.363253 590.64786,707.604919 590.493815,709.16405 C590.33977,710.723652 589.184451,711.965001 587.027823,712.890692 L430.364962,780.914194 C428.516423,781.876501 426.667912,782.202675 424.819374,781.889734 C422.970835,781.575463 421.430409,780.920467 420.19805,779.924062 C418.965691,778.925439 418.580585,777.715201 419.04272,776.295783 C419.504854,774.877446 420.660173,773.690457 422.508712,772.735964 L569.466794,709.2982 L422.508712,646.1328 C418.195455,643.972748 417.425243,641.462667 420.19805,638.623431 Z" id="&gt;-" transform="translate(504.538968, 709.289285) rotate(-100.000000) translate(-504.538968, -709.289285) "></path>
                <path d="M753.627522,276.049562 C754.243701,275.444293 755.013914,274.955953 755.938183,274.584529 C758.402901,273.668393 761.021625,273.830157 763.794433,275.06276 L920.457294,342.861468 C922.922012,343.789384 924.077331,345.03105 923.923286,346.59018 C923.769241,348.149782 922.613922,349.391132 920.457294,350.316822 L763.794433,418.340325 C761.945894,419.302632 760.097383,419.628806 758.248845,419.315865 C756.400306,419.001594 754.859881,418.346598 753.627522,417.350193 C752.395163,416.35157 752.010056,415.141332 752.472191,413.721914 C752.934325,412.303577 754.089645,411.116588 755.938183,410.162095 L902.896265,346.72433 L755.938183,283.558931 C751.624927,281.398879 750.854714,278.888798 753.627522,276.049562 Z" id="&gt;-" transform="translate(837.968439, 346.715416) scale(-1, 1) rotate(40.000000) translate(-837.968439, -346.715416) "></path>
                <path d="M753.627522,566.049562 C754.243701,565.444293 755.013914,564.955953 755.938183,564.584529 C758.402901,563.668393 761.021625,563.830157 763.794433,565.06276 L920.457294,632.861468 C922.922012,633.789384 924.077331,635.03105 923.923286,636.59018 C923.769241,638.149782 922.613922,639.391132 920.457294,640.316822 L763.794433,708.340325 C761.945894,709.302632 760.097383,709.628806 758.248845,709.315865 C756.400306,709.001594 754.859881,708.346598 753.627522,707.350193 C752.395163,706.35157 752.010056,705.141332 752.472191,703.721914 C752.934325,702.303577 754.089645,701.116588 755.938183,700.162095 L902.896265,636.72433 L755.938183,573.558931 C751.624927,571.398879 750.854714,568.888798 753.627522,566.049562 Z" id="&gt;-"></path>
                <path d="M1049.46764,677.291763 C1050.08382,676.686494 1050.85403,676.198155 1051.7783,675.82673 C1054.24302,674.910595 1056.86175,675.072359 1059.63455,676.304961 L1216.29741,744.103669 C1218.76213,745.031585 1219.91745,746.273251 1219.76341,747.832382 C1219.60936,749.391984 1218.45404,750.633333 1216.29741,751.559024 L1059.63455,819.582526 C1057.78602,820.544833 1055.9375,820.871007 1054.08897,820.558066 C1052.24043,820.243795 1050.7,819.588799 1049.46764,818.592394 C1048.23528,817.593771 1047.85018,816.383533 1048.31231,814.964115 C1048.77445,813.545778 1049.92977,812.358789 1051.7783,811.404296 L1198.73639,747.966532 L1051.7783,684.801132 C1047.46505,682.64108 1046.69483,680.130999 1049.46764,677.291763 Z" id="&gt;-" transform="translate(1133.808560, 747.957617) scale(-1, 1) rotate(-30.000000) translate(-1133.808560, -747.957617) "></path>
                <path d="M480.39216,34.988191 C481.008339,34.382922 481.778552,33.8945826 482.702822,33.5231583 C485.16754,32.6070226 487.786263,32.7687866 490.559071,34.0013894 L647.221932,101.800097 C649.68665,102.728013 650.84197,103.969679 650.687925,105.52881 C650.53388,107.088412 649.37856,108.329761 647.221932,109.255452 L490.559071,177.278954 C488.710533,178.241261 486.862022,178.567435 485.013483,178.254494 C483.164945,177.940223 481.624519,177.285227 480.39216,176.288822 C479.159801,175.290199 478.774694,174.079961 479.236829,172.660543 C479.698964,171.242206 480.854283,170.055217 482.702822,169.100724 L629.660903,105.66296 L482.702822,42.4975598 C478.389565,40.3375079 477.619352,37.8274273 480.39216,34.988191 Z" id="&gt;-" transform="translate(564.733078, 105.654045) scale(-1, 1) rotate(70.000000) translate(-564.733078, -105.654045) "></path>
                <path d="M1110.62752,387.049562 C1111.2437,386.444293 1112.01391,385.955953 1112.93818,385.584529 C1115.4029,384.668393 1118.02163,384.830157 1120.79443,386.06276 L1277.45729,453.861468 C1279.92201,454.789384 1281.07733,456.03105 1280.92329,457.59018 C1280.76924,459.149782 1279.61392,460.391132 1277.45729,461.316822 L1120.79443,529.340325 C1118.94589,530.302632 1117.09738,530.628806 1115.24884,530.315865 C1113.40031,530.001594 1111.85988,529.346598 1110.62752,528.350193 C1109.39516,527.35157 1109.01006,526.141332 1109.47219,524.721914 C1109.93433,523.303577 1111.08964,522.116588 1112.93818,521.162095 L1259.89627,457.72433 L1112.93818,394.558931 C1108.62493,392.398879 1107.85471,389.888798 1110.62752,387.049562 Z" id="&gt;-" transform="translate(1194.968439, 457.715416) scale(-1, 1) translate(-1194.968439, -457.715416) "></path>
                <path d="M309.467643,271.291763 C310.083822,270.686494 310.854035,270.198155 311.778304,269.82673 C314.243022,268.910595 316.861746,269.072359 319.634554,270.304961 L476.297415,338.103669 C478.762133,339.031585 479.917452,340.273251 479.763407,341.832382 C479.609362,343.391984 478.454043,344.633333 476.297415,345.559024 L319.634554,413.582526 C317.786015,414.544833 315.937504,414.871007 314.088966,414.558066 C312.240427,414.243795 310.700002,413.588799 309.467643,412.592394 C308.235284,411.593771 307.850177,410.383533 308.312312,408.964115 C308.774446,407.545778 309.929766,406.358789 311.778304,405.404296 L458.736386,341.966532 L311.778304,278.801132 C307.465048,276.64108 306.694835,274.130999 309.467643,271.291763 Z" id="&gt;-" transform="translate(393.808560, 341.957617) scale(-1, 1) rotate(-30.000000) translate(-393.808560, -341.957617) "></path>
                <path d="M2.62752158,349.049562 C3.24370111,348.444293 4.01391396,347.955953 4.93818325,347.584529 C7.40290135,346.668393 10.021625,346.830157 12.7944329,348.06276 L169.457294,415.861468 C171.922012,416.789384 173.077331,418.03105 172.923286,419.59018 C172.769241,421.149782 171.613922,422.391132 169.457294,423.316822 L12.7944329,491.340325 C10.9458943,492.302632 9.09738349,492.628806 7.24884491,492.315865 C5.40030634,492.001594 3.85988063,491.346598 2.62752158,490.350193 C1.39516253,489.35157 1.0100561,488.141332 1.47219075,486.721914 C1.93432539,485.303577 3.08964467,484.116588 4.93818325,483.162095 L151.896265,419.72433 L4.93818325,356.558931 C0.624926572,354.398879 -0.145286281,351.888798 2.62752158,349.049562 Z" id="&gt;-" transform="translate(86.968439, 419.715416) scale(-1, 1) rotate(-90.000000) translate(-86.968439, -419.715416) "></path>
                <path d="M78.6275216,4.04956188 C79.2437011,3.44429282 80.013914,2.95595345 80.9381832,2.58452911 C83.4029013,1.66839344 86.021625,1.83015749 88.7944329,3.06276025 L245.457294,70.8614678 C247.922012,71.7893838 249.077331,73.0310495 248.923286,74.5901805 C248.769241,76.1497825 247.613922,77.391132 245.457294,78.3168224 L88.7944329,146.340325 C86.9458943,147.302632 85.0973835,147.628806 83.2488449,147.315865 C81.4003063,147.001594 79.8598806,146.346598 78.6275216,145.350193 C77.3951625,144.35157 77.0100561,143.141332 77.4721907,141.721914 C77.9343254,140.303577 79.0896447,139.116588 80.9381832,138.162095 L227.896265,74.7243304 L80.9381832,11.5589306 C76.6249266,9.39887877 75.8547137,6.8887982 78.6275216,4.04956188 Z" id="&gt;-"></path>
                <path d="M28.9997473,672.296834 C29.6159268,671.691565 30.3861397,671.203225 31.310409,670.831801 C33.7751271,669.915665 36.3938508,670.07743 39.1666586,671.310032 L195.82952,739.10874 C198.294238,740.036656 199.449557,741.278322 199.295512,742.837452 C199.141467,744.397054 197.986148,745.638404 195.82952,746.564094 L39.1666586,814.587597 C37.3181201,815.549904 35.4696092,815.876078 33.6210706,815.563137 C31.7725321,815.248866 30.2321064,814.59387 28.9997473,813.597465 C27.7673883,812.598842 27.3822818,811.388604 27.8444165,809.969186 C28.3065511,808.550849 29.4618704,807.36386 31.310409,806.409367 L178.268491,742.971602 L31.310409,679.806203 C26.9971523,677.646151 26.2269395,675.13607 28.9997473,672.296834 Z" id="&gt;-" transform="translate(113.340665, 742.962688) rotate(40.000000) translate(-113.340665, -742.962688) "></path>
            </g>
        </g>
    </g>
</svg>