<?xml version="1.0" encoding="UTF-8" standalone="no"?>
<svg width="223px" height="190px" viewBox="0 0 223 190" version="1.1" xmlns="http://www.w3.org/2000/svg" xmlns:xlink="http://www.w3.org/1999/xlink">
    <!-- Generator: Sketch 3.8.1 (29687) - http://www.bohemiancoding.com/sketch -->
    <title>logo</title>
    <desc>Created with Sketch.</desc>
    <defs>
        <linearGradient x1="29.2364774%" y1="50%" x2="20.0989491%" y2="137.858919%" id="linearGradient-1">
            <stop stop-color="#FBDA61" offset="0%"></stop>
            <stop stop-color="#F76B1C" offset="100%"></stop>
        </linearGradient>
        <linearGradient x1="19.9997711%" y1="50%" x2="6.79738993%" y2="96.8913079%" id="linearGradient-2">
            <stop stop-color="#FBDA61" offset="0%"></stop>
            <stop stop-color="#F76B1C" offset="100%"></stop>
        </linearGradient>
        <linearGradient x1="86.6230537%" y1="47.8582411%" x2="13.3769463%" y2="47.8582411%" id="linearGradient-3">
            <stop stop-color="#FFF499" offset="0%"></stop>
            <stop stop-color="#FDB300" offset="100%"></stop>
        </linearGradient>
        <linearGradient x1="86.6230537%" y1="47.8582411%" x2="13.3769463%" y2="47.8582411%" id="linearGradient-4">
            <stop stop-color="#FFF499" offset="0%"></stop>
            <stop stop-color="#FDB300" offset="100%"></stop>
        </linearGradient>
        <linearGradient x1="-27.3095423%" y1="-45.4497333%" x2="78.0256702%" y2="74.6935052%" id="linearGradient-5">
            <stop stop-color="#4B39EE" offset="0%"></stop>
            <stop stop-color="#7BFFE5" offset="74.3622449%"></stop>
            <stop stop-color="#4B7BCB" offset="100%"></stop>
        </linearGradient>
        <linearGradient x1="-19.9885834%" y1="-34.906569%" x2="81.7187838%" y2="74.7598034%" id="linearGradient-6">
            <stop stop-color="#4B39EE" offset="0%"></stop>
            <stop stop-color="#9FFFEC" offset="74.3622449%"></stop>
            <stop stop-color="#4B7BCB" offset="100%"></stop>
        </linearGradient>
    </defs>
    <g id="Page-1" stroke="none" stroke-width="1" fill="none" fill-rule="evenodd">
        <g id="logo" transform="translate(-11.000000, -1.000000)">
            <g id="Page-1">
                <g id="Group-4">
                    <g id="C" transform="translate(174.666522, 137.072048) rotate(-20.000000) translate(-174.666522, -137.072048) translate(136.166522, 85.072048)">
                        <g id="path-2-link" transform="translate(0.000000, -0.000000)" fill="#000000">
                            <path d="M71.143203,103.903826 C74.743203,103.903826 76.327203,102.319826 76.327203,98.719826 L76.327203,81.583826 C76.327203,77.983826 74.743203,76.399826 71.143203,76.399826 L42.199203,76.399826 C36.151203,76.399826 33.415203,74.239826 33.415203,69.487826 L33.415203,35.215826 C33.415203,30.319826 36.151203,28.015826 42.199203,28.015826 L71.143203,28.015826 C74.743203,28.015826 76.327203,26.431826 76.327203,22.831826 L76.327203,5.4078255 C76.327203,1.8078255 74.743203,0.2238255 71.143203,0.2238255 L36.007203,0.2238255 C11.815203,0.2238255 0.583203,9.5838255 0.583203,29.743826 L0.583203,74.527826 C0.583203,94.543826 11.815203,103.903826 36.007203,103.903826 L71.143203,103.903826 L71.143203,103.903826 Z" id="path-2"></path>
                        </g>
                        <g id="path-2-link" transform="translate(0.000000, -0.000000)" fill="url(#linearGradient-2)">
                            <path d="M71.143203,103.903826 C74.743203,103.903826 76.327203,102.319826 76.327203,98.719826 L76.327203,81.583826 C76.327203,77.983826 74.743203,76.399826 71.143203,76.399826 L42.199203,76.399826 C36.151203,76.399826 33.415203,74.239826 33.415203,69.487826 L33.415203,35.215826 C33.415203,30.319826 36.151203,28.015826 42.199203,28.015826 L71.143203,28.015826 C74.743203,28.015826 76.327203,26.431826 76.327203,22.831826 L76.327203,5.4078255 C76.327203,1.8078255 74.743203,0.2238255 71.143203,0.2238255 L36.007203,0.2238255 C11.815203,0.2238255 0.583203,9.5838255 0.583203,29.743826 L0.583203,74.527826 C0.583203,94.543826 11.815203,103.903826 36.007203,103.903826 L71.143203,103.903826 L71.143203,103.903826 Z" id="path-2"></path>
                        </g>
                    </g>
                    <g id="E" transform="translate(89.577319, 60.121216) rotate(14.000000) translate(-89.577319, -60.121216) translate(50.077319, 8.121216)">
                        <g id="path-5-link" transform="translate(-0.000000, 0.000000)" fill="#000000">
                            <path d="M72.99722,103.715465 C76.59722,103.715465 78.18122,102.131465 78.18122,98.531465 L78.18122,81.6834652 C78.18122,78.0834652 76.59722,76.4994652 72.99722,76.4994652 L33.25322,76.4994652 L33.25322,64.1154652 L61.33322,64.1154652 C64.93322,64.1154652 66.51722,62.5314652 66.51722,58.9314652 L66.51722,43.5234652 C66.51722,39.9234652 64.93322,38.3394652 61.33322,38.3394652 L33.25322,38.3394652 L33.25322,27.2514652 L72.99722,27.2514652 C76.59722,27.2514652 78.18122,25.6674652 78.18122,22.0674652 L78.18122,5.2194652 C78.18122,1.6194652 76.59722,0.03546518 72.99722,0.03546518 L6.1812204,0.03546518 C2.5812204,0.03546518 0.9972204,1.6194652 0.9972204,5.2194652 L0.9972204,98.531465 C0.9972204,102.131465 2.5812204,103.715465 6.1812204,103.715465 L72.99722,103.715465 L72.99722,103.715465 Z" id="path-5"></path>
                        </g>
                        <g id="path-5-link" transform="translate(-0.000000, 0.000000)" fill="url(#linearGradient-4)">
                            <path d="M72.99722,103.715465 C76.59722,103.715465 78.18122,102.131465 78.18122,98.531465 L78.18122,81.6834652 C78.18122,78.0834652 76.59722,76.4994652 72.99722,76.4994652 L33.25322,76.4994652 L33.25322,64.1154652 L61.33322,64.1154652 C64.93322,64.1154652 66.51722,62.5314652 66.51722,58.9314652 L66.51722,43.5234652 C66.51722,39.9234652 64.93322,38.3394652 61.33322,38.3394652 L33.25322,38.3394652 L33.25322,27.2514652 L72.99722,27.2514652 C76.59722,27.2514652 78.18122,25.6674652 78.18122,22.0674652 L78.18122,5.2194652 C78.18122,1.6194652 76.59722,0.03546518 72.99722,0.03546518 L6.1812204,0.03546518 C2.5812204,0.03546518 0.9972204,1.6194652 0.9972204,5.2194652 L0.9972204,98.531465 C0.9972204,102.131465 2.5812204,103.715465 6.1812204,103.715465 L72.99722,103.715465 L72.99722,103.715465 Z" id="path-5"></path>
                        </g>
                    </g>
                    <g id="&gt;" transform="translate(20.925763, 109.657170) rotate(151.000000) translate(-20.925763, -109.657170) translate(9.925763, 87.657170)" fill="url(#linearGradient-5)">
                        <polygon points="0.0303507 0.589398 21.4383507 21.997398 0.0303507 43.405398 0.0303507 32.797398 10.7823507 22.045398 0.0303507 11.293398"></polygon>
                    </g>
                    <g id="&gt;" transform="translate(223.902591, 82.850514) rotate(-25.000000) translate(-223.902591, -82.850514) translate(212.902591, 60.850514)" fill="url(#linearGradient-6)">
                        <polygon points="0.060336 0.9302405 21.468336 22.3382405 0.060336 43.7462405 0.060336 33.1382405 10.812336 22.3862405 0.060336 11.6342405"></polygon>
                    </g>
                </g>
            </g>
        </g>
    </g>
</svg>