<?xml version="1.0" encoding="UTF-8" standalone="no"?>
<svg width="91px" height="126px" viewBox="0 0 91 126" version="1.1" xmlns="http://www.w3.org/2000/svg" xmlns:xlink="http://www.w3.org/1999/xlink">
    <!-- Generator: Sketch 3.8.1 (29687) - http://www.bohemiancoding.com/sketch -->
    <title>Group</title>
    <desc>Created with Sketch.</desc>
    <defs></defs>
    <g id="Page-1" stroke="none" stroke-width="1" fill="none" fill-rule="evenodd">
        <g id="Group" transform="translate(-8.000000, -12.000000)" fill="#D3E0F4">
            <path d="M83.2547541,98.4906728 C86.4164351,97.0086349 92.739797,97.3050425 98.4703438,93.7481514 C100.149987,92.6613236 101.43442,94.7361767 100.248789,96.0206096 C94.6170451,100.960736 87.1080528,101.553551 83.9463719,102.640379 C92.2457844,139.987735 62.1110127,148.682358 51.0451294,138.110487 C35.0391195,119.436809 70.3116227,101.454749 70.3116227,101.454749 C69.2247949,96.5146222 66.0631139,89.6972477 65.6679038,85.2511338 C60.0361596,95.0325843 46.2038054,126.550591 30.1977955,133.664373 C26.0480893,135.541622 24.5660513,133.071558 26.6409045,131.885928 C41.3624814,128.724247 65.2726937,81.4966377 64.4822734,79.2241795 C54.0092053,44.3468864 70.5092278,45.2361092 72.5840809,45.9277269 C84.8355946,50.2750382 75.9433669,66.281048 73.3745011,70.924767 C72.781686,72.4068049 80.982296,90.3888654 83.2547541,98.4906728 L83.2547541,98.4906728 Z M70.7068328,105.900863 C70.7068328,105.900863 43.9313472,118.646389 52.2307597,134.454794 C56.578071,143.445824 69.3235974,132.873953 70.9044379,124.376936 C72.3864758,117.757166 70.5092278,112.323027 70.7068328,105.900863 L70.7068328,105.900863 Z M71.3984505,66.9726658 C71.3984505,66.9726658 79.5990605,52.843904 72.6828834,48.9906053 C67.0511392,50.5714458 69.9164126,61.7361317 71.3984505,66.9726658 L71.3984505,66.9726658 Z" id="S" transform="translate(63.209790, 94.004300) rotate(32.000000) translate(-63.209790, -94.004300) "></path>
            <path d="M33.2560874,52.7787529 C37.1328694,49.0039915 48.1510921,36.6595012 55.8026357,47.4736828 C64.0663027,59.6141318 39.683384,63.1848521 37.0308489,62.980811 C23.870194,98.5859936 52.0278742,98.3819524 55.8026357,96.4435614 C57.434965,95.6273967 72.6360314,89.0980796 77.6350399,62.8787904 C78.0431222,60.9403994 81.001719,62.6747492 80.4916161,66.143449 C77.124937,94.4031498 55.8026357,101.44257 53.6602035,102.258734 C11.5257037,114.297163 18.3610826,62.1646463 28.0530378,58.6959466 C18.8711855,53.1868353 13.5661154,24.7230933 39.9894457,11.664459 C71.4117845,1.76846271 66.6168172,28.701896 62.1279117,32.4766574 C59.8834589,34.9251514 59.0672942,30.640287 59.8834589,29.9261429 C69.575414,3.70685374 25.9106056,19.1119614 33.2560874,52.7787529 L33.2560874,52.7787529 Z M38.459137,59.1040289 C38.459137,59.1040289 56.7208209,56.0434115 52.2319154,48.7999503 C50.1915037,46.7595387 39.683384,54.6151234 38.459137,59.1040289 L38.459137,59.1040289 Z" id="E" transform="translate(50.550534, 56.776641) rotate(32.000000) translate(-50.550534, -56.776641) "></path>
        </g>
    </g>
</svg>