<?xml version="1.0" encoding="UTF-8" standalone="no"?>
<svg width="95px" height="114px" viewBox="0 0 95 114" version="1.1" xmlns="http://www.w3.org/2000/svg" xmlns:xlink="http://www.w3.org/1999/xlink">
    <g id="Page-1" stroke="none" stroke-width="1" fill="none" fill-rule="evenodd">
        <g id="Group" transform="translate(-6.000000, -12.000000)" fill="#000000">
            <path d="M78.5935006,91.967364 C81.6639077,90.5281107 87.8047218,90.8159614 93.3698345,87.3617534 C95.0009883,86.306301 96.2483412,88.3212556 95.0969385,89.5686085 C89.6277759,94.3661195 82.3355592,94.9418208 79.2651521,95.9972733 C87.3249707,132.266457 58.0601534,140.710076 47.3137287,130.443402 C31.769793,112.308811 66.0240217,94.8458706 66.0240217,94.8458706 C64.9685693,90.0483596 61.8981622,83.4277944 61.5143614,79.1100345 C56.0451988,88.6091063 42.6121679,119.217227 27.0682322,126.125642 C23.038323,127.948697 21.5990697,125.549941 23.6140243,124.398538 C37.9106071,121.328131 61.1305605,75.4639261 60.3629587,73.257071 C50.1922354,39.3866432 66.2159222,40.2501952 68.2308768,40.9218467 C80.1287041,45.1436564 71.4931843,60.6875922 68.9984786,65.1972525 C68.4227772,66.6365058 76.3866455,84.0994459 78.5935006,91.967364 L78.5935006,91.967364 Z M66.4078226,99.1636305 C66.4078226,99.1636305 40.4053129,111.541209 48.4651314,126.893244 C52.6869411,135.624714 65.0645195,125.358041 66.599723,117.106322 C68.0389764,110.677657 66.2159222,105.400395 66.4078226,99.1636305 L66.4078226,99.1636305 Z M67.0794742,61.3592437 C67.0794742,61.3592437 75.0433424,47.6383622 68.326827,43.8963036 C62.8576645,45.4315071 65.6402208,56.273882 67.0794742,61.3592437 L67.0794742,61.3592437 Z" id="S" transform="translate(59.127210, 87.610507) rotate(47.000000) translate(-59.127210, -87.610507) "></path>
            <path d="M35.5000901,47.2032372 C39.1461984,43.653079 49.5088222,32.0431023 56.7050888,42.2138257 C64.4770566,53.6319019 41.544954,56.9901596 39.0502482,56.7982592 C26.6726698,90.2848861 53.1549306,90.0929857 56.7050888,88.2699315 C58.2402923,87.5023297 72.5368751,81.3615156 77.2384359,56.702309 C77.6222368,54.8792548 80.4047932,56.5104085 79.9250421,59.772716 C76.7586848,86.3509271 56.7050888,92.9714923 54.6901341,93.7390941 C15.0626931,105.06122 21.4913579,56.0306574 30.6066288,52.7683499 C21.971109,47.587038 16.9816975,20.8169266 41.8328046,8.53529834 C71.3854725,-0.771873038 66.8758121,24.5589851 62.6540024,28.1091433 C60.5430976,30.4119486 59.7754958,26.3820393 60.5430976,25.7103878 C69.6583685,1.05118115 28.5916742,15.5396644 35.5000901,47.2032372 L35.5000901,47.2032372 Z M40.3935513,53.1521508 C40.3935513,53.1521508 57.5686408,50.2736442 53.3468311,43.4611786 C51.4278267,41.5421742 41.544954,48.9303411 40.3935513,53.1521508 L40.3935513,53.1521508 Z" id="E" transform="translate(51.765494, 50.963245) rotate(47.000000) translate(-51.765494, -50.963245) "></path>
        </g>
    </g>
</svg>
