
<svg viewBox="2 4 307 616" version="1.1" xmlns="http://www.w3.org/2000/svg" xmlns:xlink="http://www.w3.org/1999/xlink">
    <!-- Generator: Sketch 3.8.1 (29687) - http://www.bohemiancoding.com/sketch -->
    <desc>Created with Sketch.</desc>
    <defs>
        <filter x="-50%" y="-50%" width="200%" height="200%" filterUnits="objectBoundingBox" id="filter-1">
            <feOffset dx="18" dy="29" in="SourceAlpha" result="shadowOffsetOuter1"></feOffset>
            <feGaussianBlur stdDeviation="5.5" in="shadowOffsetOuter1" result="shadowBlurOuter1"></feGaussianBlur>
            <feColorMatrix values="0 0 0 0 0   0 0 0 0 0   0 0 0 0 0  0 0 0 0.295204937 0" type="matrix" in="shadowBlurOuter1" result="shadowMatrixOuter1"></feColorMatrix>
            <feMerge>
                <feMergeNode in="shadowMatrixOuter1"></feMergeNode>
                <feMergeNode in="SourceGraphic"></feMergeNode>
            </feMerge>
        </filter>
    </defs>
    <g id="Page-1" filter="url(#filter-1)" stroke="none" stroke-width="1" fill="none" fill-rule="evenodd" transform="translate(2.000000, 4.000000)" opacity="0.87447528">
        <g id="iPhone-6">
            <g id="Group-4">
                <g id="Rectangle-2" transform="translate(73.000000, 55.000000)" fill="#5AFAC7" fill-opacity="0.9">
                    <g id="path-1-link">
                        <rect id="path-1" x="0" y="1.42108547e-14" width="68.3541567" height="242.181818"></rect>
                    </g>
                </g>
                <g id="Rectangle-2" transform="translate(126.000000, 187.000000)" fill="#4093CF" fill-opacity="0.862828351">
                    <g id="path-3-link">
                        <rect id="path-3" x="0" y="0" width="92.2590703" height="199.168353"></rect>
                    </g>
                </g>
                <g id="Stroke-3" transform="translate(31.119253, 28.516543) rotate(28.000000) translate(-31.119253, -28.516543) translate(6.119253, 10.516543)" fill="#CE5ECF">
                    <g id="path-5-link">
                        <polygon id="path-5" points="0.59512357 35.1956574 27.1179741 0.77626293 49.0338646 35.853467"></polygon>
                    </g>
                </g>
                <g id="Oval-7" transform="translate(229.000000, 92.000000)" fill="#A7AC70" fill-opacity="0.9">
                    <g id="path-7-link">
                        <path d="M24,48 C37.254834,48 48,37.254834 48,24 C48,10.745166 37.254834,0 24,0 C10.745166,0 0,10.745166 0,24 C0,37.254834 10.745166,48 24,48 L24,48 Z" id="path-7"></path>
                    </g>
                </g>
                <g id="Fill-1" transform="translate(72.998891, 307.498722) rotate(-1.000000) translate(-72.998891, -307.498722) translate(39.998891, 281.998722)" fill="#E2B455" fill-opacity="0.9">
                    <g id="path-9-link">
                        <polygon id="path-9" points="65.426239 50.562915 0.4262388 49.625255 36.0162625 0.562915"></polygon>
                    </g>
                </g>
                <g id="Rectangle-9" transform="translate(227.000000, 545.000000)" fill="#B1A2DD">
                    <g id="path-11-link">
                        <polygon id="path-11" points="32 15.0059238 16.2792812 30.5450124 0 15.5390886 15.7207188 0"></polygon>
                    </g>
                </g>
            </g>
        </g>
    </g>
</svg>
